<mxfile host="app.diagrams.net" modified="2024-04-02T05:22:48.749Z" agent="Mozilla/5.0 (Windows NT 10.0; Win64; x64) AppleWebKit/537.36 (KHTML, like Gecko) Chrome/123.0.0.0 Safari/537.36" etag="xb3HPL33PWYQLDsqOBMd" version="24.2.1" type="github">
  <diagram name="Page-1" id="2YBvvXClWsGukQMizWep">
    <mxGraphModel dx="2348" dy="738" grid="1" gridSize="10" guides="1" tooltips="1" connect="1" arrows="1" fold="1" page="1" pageScale="1" pageWidth="850" pageHeight="1100" math="0" shadow="0">
      <root>
        <mxCell id="0" />
        <mxCell id="1" parent="0" />
        <mxCell id="HPmOz7iuE5RpzU_WbBUe-19" value="" style="rounded=1;whiteSpace=wrap;html=1;fillColor=none;" vertex="1" parent="1">
          <mxGeometry x="230" y="750" width="950" height="440" as="geometry" />
        </mxCell>
        <mxCell id="s4_db3RRF_GfCDhbXJha-46" style="edgeStyle=orthogonalEdgeStyle;rounded=0;orthogonalLoop=1;jettySize=auto;html=1;exitX=1;exitY=0.3333333333333333;exitDx=0;exitDy=0;exitPerimeter=0;entryX=0.75;entryY=0;entryDx=0;entryDy=0;" parent="1" source="s4_db3RRF_GfCDhbXJha-1" target="s4_db3RRF_GfCDhbXJha-16" edge="1">
          <mxGeometry relative="1" as="geometry">
            <Array as="points">
              <mxPoint x="238" y="260" />
              <mxPoint x="238" y="270" />
            </Array>
          </mxGeometry>
        </mxCell>
        <mxCell id="s4_db3RRF_GfCDhbXJha-1" value="Actor" style="shape=umlActor;verticalLabelPosition=bottom;verticalAlign=top;html=1;outlineConnect=0;" parent="1" vertex="1">
          <mxGeometry x="180" y="240" width="30" height="60" as="geometry" />
        </mxCell>
        <mxCell id="s4_db3RRF_GfCDhbXJha-7" value="" style="verticalLabelPosition=bottom;verticalAlign=top;html=1;shape=mxgraph.basic.rect;fillColor2=none;strokeWidth=1;size=20;indent=5;" parent="1" vertex="1">
          <mxGeometry x="840" y="80" width="130" height="500" as="geometry" />
        </mxCell>
        <mxCell id="s4_db3RRF_GfCDhbXJha-40" style="edgeStyle=orthogonalEdgeStyle;rounded=0;orthogonalLoop=1;jettySize=auto;html=1;exitX=0;exitY=0.25;exitDx=0;exitDy=0;entryX=0.5;entryY=0;entryDx=0;entryDy=0;" parent="1" source="s4_db3RRF_GfCDhbXJha-9" target="s4_db3RRF_GfCDhbXJha-34" edge="1">
          <mxGeometry relative="1" as="geometry" />
        </mxCell>
        <mxCell id="s4_db3RRF_GfCDhbXJha-9" value="&lt;b&gt;Configuration&lt;/b&gt;" style="rounded=0;whiteSpace=wrap;html=1;" parent="1" vertex="1">
          <mxGeometry x="840" y="50" width="130" height="30" as="geometry" />
        </mxCell>
        <mxCell id="s4_db3RRF_GfCDhbXJha-10" value="MappedStatement" style="rounded=1;whiteSpace=wrap;html=1;" parent="1" vertex="1">
          <mxGeometry x="850" y="130" width="110" height="30" as="geometry" />
        </mxCell>
        <mxCell id="s4_db3RRF_GfCDhbXJha-11" value="MapperRegistry" style="rounded=1;whiteSpace=wrap;html=1;" parent="1" vertex="1">
          <mxGeometry x="850" y="170" width="110" height="30" as="geometry" />
        </mxCell>
        <mxCell id="s4_db3RRF_GfCDhbXJha-30" style="edgeStyle=orthogonalEdgeStyle;rounded=0;orthogonalLoop=1;jettySize=auto;html=1;exitX=1;exitY=0.5;exitDx=0;exitDy=0;entryX=0.1;entryY=0.5;entryDx=0;entryDy=0;entryPerimeter=0;strokeColor=default;dashed=1;endSize=4;startSize=4;" parent="1" source="s4_db3RRF_GfCDhbXJha-13" target="s4_db3RRF_GfCDhbXJha-31" edge="1">
          <mxGeometry relative="1" as="geometry">
            <mxPoint x="990" y="80" as="targetPoint" />
          </mxGeometry>
        </mxCell>
        <mxCell id="s4_db3RRF_GfCDhbXJha-13" value="Environment" style="rounded=1;whiteSpace=wrap;html=1;" parent="1" vertex="1">
          <mxGeometry x="850" y="90" width="110" height="30" as="geometry" />
        </mxCell>
        <mxCell id="s4_db3RRF_GfCDhbXJha-14" value="TypeAliasRegistry" style="rounded=1;whiteSpace=wrap;html=1;" parent="1" vertex="1">
          <mxGeometry x="850" y="210" width="110" height="30" as="geometry" />
        </mxCell>
        <mxCell id="s4_db3RRF_GfCDhbXJha-15" value="&lt;b&gt;......&lt;/b&gt;" style="rounded=1;whiteSpace=wrap;html=1;" parent="1" vertex="1">
          <mxGeometry x="850" y="250" width="110" height="30" as="geometry" />
        </mxCell>
        <mxCell id="s4_db3RRF_GfCDhbXJha-37" style="edgeStyle=orthogonalEdgeStyle;rounded=0;orthogonalLoop=1;jettySize=auto;html=1;exitX=0.5;exitY=1;exitDx=0;exitDy=0;entryX=0.5;entryY=0;entryDx=0;entryDy=0;" parent="1" source="s4_db3RRF_GfCDhbXJha-16" target="s4_db3RRF_GfCDhbXJha-32" edge="1">
          <mxGeometry relative="1" as="geometry" />
        </mxCell>
        <mxCell id="s4_db3RRF_GfCDhbXJha-48" style="edgeStyle=orthogonalEdgeStyle;rounded=0;orthogonalLoop=1;jettySize=auto;html=1;exitX=1;exitY=0.5;exitDx=0;exitDy=0;entryX=0;entryY=0.5;entryDx=0;entryDy=0;" parent="1" source="s4_db3RRF_GfCDhbXJha-16" target="s4_db3RRF_GfCDhbXJha-17" edge="1">
          <mxGeometry relative="1" as="geometry" />
        </mxCell>
        <mxCell id="s4_db3RRF_GfCDhbXJha-16" value="&lt;b&gt;SqlSessionFactoryBuilder&lt;/b&gt;" style="rounded=1;whiteSpace=wrap;html=1;" parent="1" vertex="1">
          <mxGeometry x="110" y="350" width="170" height="30" as="geometry" />
        </mxCell>
        <mxCell id="s4_db3RRF_GfCDhbXJha-17" value="&lt;b&gt;XmlConfigBuilder&lt;/b&gt;" style="rounded=1;whiteSpace=wrap;html=1;" parent="1" vertex="1">
          <mxGeometry x="300" y="350" width="170" height="30" as="geometry" />
        </mxCell>
        <mxCell id="s4_db3RRF_GfCDhbXJha-18" value="mybatis-config.xml" style="whiteSpace=wrap;html=1;shape=mxgraph.basic.document" parent="1" vertex="1">
          <mxGeometry x="500" y="350" width="120" height="70" as="geometry" />
        </mxCell>
        <mxCell id="s4_db3RRF_GfCDhbXJha-19" value="XxxMapper.xml" style="whiteSpace=wrap;html=1;shape=mxgraph.basic.document" parent="1" vertex="1">
          <mxGeometry x="500" y="430" width="120" height="70" as="geometry" />
        </mxCell>
        <mxCell id="s4_db3RRF_GfCDhbXJha-20" value="XxxMapper.xml" style="whiteSpace=wrap;html=1;shape=mxgraph.basic.document" parent="1" vertex="1">
          <mxGeometry x="510" y="440" width="120" height="70" as="geometry" />
        </mxCell>
        <mxCell id="s4_db3RRF_GfCDhbXJha-21" value="XxxMapper.xml" style="whiteSpace=wrap;html=1;shape=mxgraph.basic.document" parent="1" vertex="1">
          <mxGeometry x="520" y="450" width="120" height="70" as="geometry" />
        </mxCell>
        <mxCell id="s4_db3RRF_GfCDhbXJha-22" value="" style="shape=curlyBracket;whiteSpace=wrap;html=1;rounded=1;labelPosition=left;verticalLabelPosition=middle;align=right;verticalAlign=middle;" parent="1" vertex="1">
          <mxGeometry x="470" y="360" width="20" height="120" as="geometry" />
        </mxCell>
        <mxCell id="s4_db3RRF_GfCDhbXJha-23" style="edgeStyle=orthogonalEdgeStyle;rounded=0;orthogonalLoop=1;jettySize=auto;html=1;exitX=0.5;exitY=1;exitDx=0;exitDy=0;entryX=0.1;entryY=0.5;entryDx=0;entryDy=0;entryPerimeter=0;" parent="1" source="s4_db3RRF_GfCDhbXJha-17" target="s4_db3RRF_GfCDhbXJha-22" edge="1">
          <mxGeometry relative="1" as="geometry">
            <Array as="points">
              <mxPoint x="385" y="420" />
            </Array>
          </mxGeometry>
        </mxCell>
        <mxCell id="s4_db3RRF_GfCDhbXJha-24" value="" style="shape=curlyBracket;whiteSpace=wrap;html=1;rounded=1;flipH=1;labelPosition=right;verticalLabelPosition=middle;align=left;verticalAlign=middle;" parent="1" vertex="1">
          <mxGeometry x="650" y="360" width="20" height="120" as="geometry" />
        </mxCell>
        <mxCell id="s4_db3RRF_GfCDhbXJha-26" value="" style="shape=curlyBracket;whiteSpace=wrap;html=1;rounded=1;labelPosition=left;verticalLabelPosition=middle;align=right;verticalAlign=middle;" parent="1" vertex="1">
          <mxGeometry x="820" y="90" width="20" height="110" as="geometry" />
        </mxCell>
        <mxCell id="s4_db3RRF_GfCDhbXJha-27" style="edgeStyle=orthogonalEdgeStyle;rounded=0;orthogonalLoop=1;jettySize=auto;html=1;exitX=0.1;exitY=0.5;exitDx=0;exitDy=0;exitPerimeter=0;entryX=0.1;entryY=0.5;entryDx=0;entryDy=0;entryPerimeter=0;" parent="1" source="s4_db3RRF_GfCDhbXJha-24" target="s4_db3RRF_GfCDhbXJha-26" edge="1">
          <mxGeometry relative="1" as="geometry">
            <Array as="points">
              <mxPoint x="730" y="420" />
              <mxPoint x="730" y="145" />
            </Array>
          </mxGeometry>
        </mxCell>
        <mxCell id="s4_db3RRF_GfCDhbXJha-28" value="TransactionFactory" style="rounded=1;whiteSpace=wrap;html=1;" parent="1" vertex="1">
          <mxGeometry x="1030" y="50" width="110" height="30" as="geometry" />
        </mxCell>
        <mxCell id="s4_db3RRF_GfCDhbXJha-29" value="DataSource" style="rounded=1;whiteSpace=wrap;html=1;" parent="1" vertex="1">
          <mxGeometry x="1030" y="90" width="110" height="30" as="geometry" />
        </mxCell>
        <mxCell id="s4_db3RRF_GfCDhbXJha-31" value="" style="shape=curlyBracket;whiteSpace=wrap;html=1;rounded=1;labelPosition=left;verticalLabelPosition=middle;align=right;verticalAlign=middle;" parent="1" vertex="1">
          <mxGeometry x="1010" y="60" width="20" height="50" as="geometry" />
        </mxCell>
        <mxCell id="s4_db3RRF_GfCDhbXJha-38" style="edgeStyle=orthogonalEdgeStyle;rounded=0;orthogonalLoop=1;jettySize=auto;html=1;exitX=0.5;exitY=1;exitDx=0;exitDy=0;entryX=0.5;entryY=0;entryDx=0;entryDy=0;" parent="1" source="s4_db3RRF_GfCDhbXJha-32" target="s4_db3RRF_GfCDhbXJha-33" edge="1">
          <mxGeometry relative="1" as="geometry" />
        </mxCell>
        <mxCell id="s4_db3RRF_GfCDhbXJha-32" value="&lt;b&gt;SqlSessionFactory&lt;/b&gt;" style="rounded=1;whiteSpace=wrap;html=1;" parent="1" vertex="1">
          <mxGeometry x="110" y="420" width="170" height="30" as="geometry" />
        </mxCell>
        <mxCell id="s4_db3RRF_GfCDhbXJha-39" style="edgeStyle=orthogonalEdgeStyle;rounded=0;orthogonalLoop=1;jettySize=auto;html=1;exitX=0;exitY=0.5;exitDx=0;exitDy=0;entryX=0;entryY=0.25;entryDx=0;entryDy=0;" parent="1" source="s4_db3RRF_GfCDhbXJha-33" target="s4_db3RRF_GfCDhbXJha-9" edge="1">
          <mxGeometry relative="1" as="geometry">
            <mxPoint x="86" y="120" as="targetPoint" />
          </mxGeometry>
        </mxCell>
        <mxCell id="s4_db3RRF_GfCDhbXJha-41" value="getMapper" style="edgeLabel;html=1;align=center;verticalAlign=middle;resizable=0;points=[];" parent="s4_db3RRF_GfCDhbXJha-39" vertex="1" connectable="0">
          <mxGeometry x="-0.5578" y="2" relative="1" as="geometry">
            <mxPoint as="offset" />
          </mxGeometry>
        </mxCell>
        <mxCell id="s4_db3RRF_GfCDhbXJha-44" style="edgeStyle=orthogonalEdgeStyle;rounded=0;orthogonalLoop=1;jettySize=auto;html=1;exitX=1;exitY=0.5;exitDx=0;exitDy=0;" parent="1" source="s4_db3RRF_GfCDhbXJha-33" edge="1">
          <mxGeometry relative="1" as="geometry">
            <mxPoint x="350" y="590" as="targetPoint" />
          </mxGeometry>
        </mxCell>
        <mxCell id="s4_db3RRF_GfCDhbXJha-33" value="&lt;b&gt;SqlSession&lt;/b&gt;" style="rounded=1;whiteSpace=wrap;html=1;" parent="1" vertex="1">
          <mxGeometry x="110" y="490" width="170" height="30" as="geometry" />
        </mxCell>
        <mxCell id="s4_db3RRF_GfCDhbXJha-43" style="edgeStyle=orthogonalEdgeStyle;rounded=0;orthogonalLoop=1;jettySize=auto;html=1;exitX=0.5;exitY=1;exitDx=0;exitDy=0;entryX=0.5;entryY=0;entryDx=0;entryDy=0;" parent="1" source="s4_db3RRF_GfCDhbXJha-34" target="s4_db3RRF_GfCDhbXJha-35" edge="1">
          <mxGeometry relative="1" as="geometry" />
        </mxCell>
        <mxCell id="s4_db3RRF_GfCDhbXJha-34" value="&lt;b&gt;MapperProxyFactory&lt;/b&gt;" style="rounded=1;whiteSpace=wrap;html=1;" parent="1" vertex="1">
          <mxGeometry x="-220" y="490" width="170" height="30" as="geometry" />
        </mxCell>
        <mxCell id="s4_db3RRF_GfCDhbXJha-36" style="edgeStyle=orthogonalEdgeStyle;rounded=0;orthogonalLoop=1;jettySize=auto;html=1;exitX=0.5;exitY=1;exitDx=0;exitDy=0;entryX=0.5;entryY=1;entryDx=0;entryDy=0;" parent="1" source="s4_db3RRF_GfCDhbXJha-35" target="s4_db3RRF_GfCDhbXJha-33" edge="1">
          <mxGeometry relative="1" as="geometry" />
        </mxCell>
        <mxCell id="s4_db3RRF_GfCDhbXJha-35" value="&lt;b&gt;MapperProxy&lt;/b&gt;" style="rounded=1;whiteSpace=wrap;html=1;" parent="1" vertex="1">
          <mxGeometry x="-220" y="560" width="170" height="30" as="geometry" />
        </mxCell>
        <mxCell id="s4_db3RRF_GfCDhbXJha-45" value="&lt;b&gt;selectOne&lt;/b&gt;" style="rounded=1;whiteSpace=wrap;html=1;" parent="1" vertex="1">
          <mxGeometry x="270" y="590" width="170" height="30" as="geometry" />
        </mxCell>
        <mxCell id="HPmOz7iuE5RpzU_WbBUe-20" style="rounded=0;orthogonalLoop=1;jettySize=auto;html=1;entryX=0;entryY=0.5;entryDx=0;entryDy=0;targetPerimeterSpacing=6;sourcePerimeterSpacing=6;strokeWidth=1;exitX=1;exitY=0.5;exitDx=0;exitDy=0;startArrow=classic;startFill=1;" edge="1" parent="1" source="HPmOz7iuE5RpzU_WbBUe-1" target="HPmOz7iuE5RpzU_WbBUe-2">
          <mxGeometry relative="1" as="geometry">
            <mxPoint x="170" y="760" as="targetPoint" />
            <mxPoint x="100" y="860" as="sourcePoint" />
          </mxGeometry>
        </mxCell>
        <mxCell id="HPmOz7iuE5RpzU_WbBUe-1" value="&lt;b&gt;XmlConfigBuilder&lt;/b&gt;" style="rounded=1;whiteSpace=wrap;html=1;" vertex="1" parent="1">
          <mxGeometry x="-60" y="770" width="150" height="30" as="geometry" />
        </mxCell>
        <mxCell id="HPmOz7iuE5RpzU_WbBUe-25" style="edgeStyle=orthogonalEdgeStyle;rounded=0;orthogonalLoop=1;jettySize=auto;html=1;exitX=0.5;exitY=1;exitDx=0;exitDy=0;entryX=0.5;entryY=0;entryDx=0;entryDy=0;" edge="1" parent="1" source="HPmOz7iuE5RpzU_WbBUe-2" target="HPmOz7iuE5RpzU_WbBUe-3">
          <mxGeometry relative="1" as="geometry" />
        </mxCell>
        <mxCell id="HPmOz7iuE5RpzU_WbBUe-2" value="&lt;b&gt;XmlLanguageDriver&lt;/b&gt;" style="rounded=1;whiteSpace=wrap;html=1;" vertex="1" parent="1">
          <mxGeometry x="400" y="770" width="170" height="30" as="geometry" />
        </mxCell>
        <mxCell id="HPmOz7iuE5RpzU_WbBUe-23" style="edgeStyle=orthogonalEdgeStyle;rounded=0;orthogonalLoop=1;jettySize=auto;html=1;exitX=0.5;exitY=1;exitDx=0;exitDy=0;entryX=0.5;entryY=0;entryDx=0;entryDy=0;" edge="1" parent="1" source="HPmOz7iuE5RpzU_WbBUe-3" target="HPmOz7iuE5RpzU_WbBUe-7">
          <mxGeometry relative="1" as="geometry" />
        </mxCell>
        <mxCell id="HPmOz7iuE5RpzU_WbBUe-3" value="&lt;b&gt;XmlScriptBuilder&lt;/b&gt;" style="rounded=1;whiteSpace=wrap;html=1;" vertex="1" parent="1">
          <mxGeometry x="400" y="860" width="170" height="30" as="geometry" />
        </mxCell>
        <mxCell id="HPmOz7iuE5RpzU_WbBUe-13" style="edgeStyle=orthogonalEdgeStyle;rounded=0;orthogonalLoop=1;jettySize=auto;html=1;exitX=1;exitY=0.5;exitDx=0;exitDy=0;entryX=0;entryY=0.5;entryDx=0;entryDy=0;" edge="1" parent="1" source="HPmOz7iuE5RpzU_WbBUe-4" target="HPmOz7iuE5RpzU_WbBUe-6">
          <mxGeometry relative="1" as="geometry" />
        </mxCell>
        <mxCell id="HPmOz7iuE5RpzU_WbBUe-4" value="&lt;b&gt;RawSqlSource&lt;/b&gt;" style="rounded=1;whiteSpace=wrap;html=1;" vertex="1" parent="1">
          <mxGeometry x="400" y="1070" width="170" height="30" as="geometry" />
        </mxCell>
        <mxCell id="HPmOz7iuE5RpzU_WbBUe-5" value="&lt;b&gt;StaticSqlSource&lt;/b&gt;" style="rounded=1;whiteSpace=wrap;html=1;" vertex="1" parent="1">
          <mxGeometry x="900" y="1029" width="170" height="30" as="geometry" />
        </mxCell>
        <mxCell id="HPmOz7iuE5RpzU_WbBUe-17" style="edgeStyle=orthogonalEdgeStyle;rounded=0;orthogonalLoop=1;jettySize=auto;html=1;exitX=0.5;exitY=0;exitDx=0;exitDy=0;entryX=1;entryY=0.5;entryDx=0;entryDy=0;" edge="1" parent="1" source="HPmOz7iuE5RpzU_WbBUe-6" target="HPmOz7iuE5RpzU_WbBUe-7">
          <mxGeometry relative="1" as="geometry" />
        </mxCell>
        <mxCell id="HPmOz7iuE5RpzU_WbBUe-26" style="edgeStyle=orthogonalEdgeStyle;rounded=0;orthogonalLoop=1;jettySize=auto;html=1;exitX=0.5;exitY=0;exitDx=0;exitDy=0;entryX=0.5;entryY=0;entryDx=0;entryDy=0;" edge="1" parent="1" source="HPmOz7iuE5RpzU_WbBUe-6" target="HPmOz7iuE5RpzU_WbBUe-5">
          <mxGeometry relative="1" as="geometry">
            <Array as="points">
              <mxPoint x="725" y="990" />
              <mxPoint x="985" y="990" />
            </Array>
          </mxGeometry>
        </mxCell>
        <mxCell id="HPmOz7iuE5RpzU_WbBUe-27" value="sql #{id}" style="edgeLabel;html=1;align=center;verticalAlign=middle;resizable=0;points=[];" vertex="1" connectable="0" parent="HPmOz7iuE5RpzU_WbBUe-26">
          <mxGeometry x="0.2722" y="2" relative="1" as="geometry">
            <mxPoint as="offset" />
          </mxGeometry>
        </mxCell>
        <mxCell id="HPmOz7iuE5RpzU_WbBUe-6" value="DynamicContext" style="rounded=1;whiteSpace=wrap;html=1;" vertex="1" parent="1">
          <mxGeometry x="640" y="1029" width="170" height="30" as="geometry" />
        </mxCell>
        <mxCell id="HPmOz7iuE5RpzU_WbBUe-24" style="edgeStyle=orthogonalEdgeStyle;rounded=0;orthogonalLoop=1;jettySize=auto;html=1;exitX=0.5;exitY=1;exitDx=0;exitDy=0;" edge="1" parent="1" source="HPmOz7iuE5RpzU_WbBUe-7" target="HPmOz7iuE5RpzU_WbBUe-4">
          <mxGeometry relative="1" as="geometry" />
        </mxCell>
        <mxCell id="HPmOz7iuE5RpzU_WbBUe-7" value="MixedSqlNode" style="rounded=1;whiteSpace=wrap;html=1;" vertex="1" parent="1">
          <mxGeometry x="400" y="969" width="170" height="30" as="geometry" />
        </mxCell>
        <mxCell id="HPmOz7iuE5RpzU_WbBUe-9" value="apply" style="text;html=1;align=center;verticalAlign=middle;resizable=0;points=[];autosize=1;strokeColor=none;fillColor=none;" vertex="1" parent="1">
          <mxGeometry x="650" y="959" width="50" height="30" as="geometry" />
        </mxCell>
        <mxCell id="HPmOz7iuE5RpzU_WbBUe-12" value="selectElement" style="text;html=1;align=center;verticalAlign=middle;resizable=0;points=[];autosize=1;strokeColor=none;fillColor=none;" vertex="1" parent="1">
          <mxGeometry x="300" y="760" width="100" height="30" as="geometry" />
        </mxCell>
        <mxCell id="HPmOz7iuE5RpzU_WbBUe-14" value="List&amp;lt;SqlNode&lt;span style=&quot;background-color: initial;&quot;&gt;&amp;gt;&lt;/span&gt;" style="text;html=1;align=center;verticalAlign=middle;resizable=0;points=[];autosize=1;strokeColor=none;fillColor=none;" vertex="1" parent="1">
          <mxGeometry x="480" y="910" width="100" height="30" as="geometry" />
        </mxCell>
        <mxCell id="HPmOz7iuE5RpzU_WbBUe-22" value="SqlSource" style="text;html=1;align=center;verticalAlign=middle;resizable=0;points=[];autosize=1;strokeColor=none;fillColor=none;" vertex="1" parent="1">
          <mxGeometry x="100" y="760" width="80" height="30" as="geometry" />
        </mxCell>
      </root>
    </mxGraphModel>
  </diagram>
</mxfile>
